<svg width="512" height="512" viewBox="0 0 512 512" fill="none" xmlns="http://www.w3.org/2000/svg">
<path d="M318.621 215.374L308.298 251.349C306.868 256.33 308.367 261.623 312.099 265.245C328.805 281.578 340.174 301.011 340 328.454C339.721 376.201 301.846 411.445 255.461 411.201C209.077 410.923 171.621 375.261 171.865 327.514C171.969 306.618 177.968 293.21 184.525 283.424C187.942 278.305 187.733 271.618 183.897 266.847L159.868 237.001C157.147 233.623 151.986 233.518 149.161 236.792C127.887 261.205 112.646 287.673 112.402 327.166C111.984 402.181 175.771 463.545 255.182 463.997C334.594 464.45 399.079 403.818 399.497 328.803C399.776 277.156 371.632 235.504 328.805 211.195C324.898 208.966 319.876 211.021 318.656 215.374H318.621Z" fill="#268BF0"/>
<path d="M255.252 190.543C272.725 188.767 286.57 183.056 296.37 172.747C329.502 137.886 313.634 48 313.634 48C313.634 48 240.186 65.7265 217.273 115.249C209.077 132.976 205.764 151.016 215.843 170.866L216.924 172.852C231.014 136.04 250.649 115.319 273.806 91.9157C216.68 184.832 219.714 234.703 241.616 270.852H221.737L217.238 287.151H239.209C246.812 287.151 252.218 288.822 255.74 292.305C257.205 293.768 258.391 295.439 259.228 297.39H221.597L217.273 312.643H260.1C259.681 313.967 259.158 315.186 258.495 316.335C256.891 318.982 254.415 321.071 251.206 322.499C247.998 323.927 243.987 324.659 239.244 324.659H218.912L219.016 336.499L258.426 384.246L258.705 384.559H281.723L244.964 339.634C252.95 339.042 259.577 337.266 264.634 334.305C269.935 331.241 273.841 327.166 276.317 322.186C277.782 319.226 278.793 316.022 279.386 312.609H290.86L295.185 297.355H279.107C278.375 293.837 277.154 290.564 275.48 287.569C275.201 287.046 274.887 286.559 274.573 286.071L290.825 286.176L295.185 270.852H261.041C250.649 257.34 238.582 232.16 242.836 190.265C246.394 190.961 250.404 191.031 255.217 190.508H255.252V190.543Z" fill="#00BD87"/>
</svg>
